HIERARCHY
ROOT Hips
{
  OFFSET 2.26061 22.2878 23.7974
  CHANNELS 6 Xposition Yposition Zposition Zrotation Xrotation Yrotation
  JOINT LeftUpLeg
  {
    OFFSET 8.64259 1.95398 -2.38835
    CHANNELS 3 Zrotation Xrotation Yrotation
    JOINT LeftLeg
    {
      OFFSET 43.7702 0 0
      CHANNELS 3 Zrotation Xrotation Yrotation
      JOINT LeftFoot
      {
        OFFSET 40.6238 0 0
        CHANNELS 3 Zrotation Xrotation Yrotation
        JOINT LeftToeBase
        {
          OFFSET 12.7242 0 0
          CHANNELS 3 Zrotation Xrotation Yrotation
          End Site
          {
            OFFSET 0 0 0
          }
        }
      }
    }
  }
  JOINT RightUpLeg
  {
    OFFSET -8.2249 1.95398 -2.59336
    CHANNELS 3 Zrotation Xrotation Yrotation
    JOINT RightLeg
    {
      OFFSET 43.5653 0 0
      CHANNELS 3 Zrotation Xrotation Yrotation
      JOINT RightFoot
      {
        OFFSET 40.6238 0 0
        CHANNELS 3 Zrotation Xrotation Yrotation
        JOINT RightToeBase
        {
          OFFSET 12.7242 0 0
          CHANNELS 3 Zrotation Xrotation Yrotation
          End Site
          {
            OFFSET 0 0 0
          }
        }
      }
    }
  }
  JOINT Spine
  {
    OFFSET 0.165834 0.87714 6.61349
    CHANNELS 3 Zrotation Xrotation Yrotation
    JOINT Spine1
    {
      OFFSET 7.38963 1.71661e-005 0
      CHANNELS 3 Zrotation Xrotation Yrotation
      JOINT Spine2
      {
        OFFSET 11.9445 1.14441e-005 0
        CHANNELS 3 Zrotation Xrotation Yrotation
        JOINT Spine3
        {
          OFFSET 14.7254 4.19617e-005 0
          CHANNELS 3 Zrotation Xrotation Yrotation
          JOINT Spine4
          {
            OFFSET 10.9679 0 0
            CHANNELS 3 Zrotation Xrotation Yrotation
            JOINT RightShoulder
            {
              OFFSET 2.46616 -1.6653 3.69651
              CHANNELS 3 Zrotation Xrotation Yrotation
              JOINT RightArm
              {
                OFFSET 13.0012 0 0
                CHANNELS 3 Zrotation Xrotation Yrotation
                JOINT RightForeArm
                {
                  OFFSET 28.7848 1.52588e-005 0
                  CHANNELS 3 Zrotation Xrotation Yrotation
                  JOINT RightHand
                  {
                    OFFSET 26.5688 1.52588e-005 0
                    CHANNELS 3 Zrotation Xrotation Yrotation
                    End Site
                    {
                      OFFSET 0 0 0
                    }
                  }
                }
              }
            }
            JOINT LeftShoulder
            {
              OFFSET 2.38034 -1.29275 -3.7523
              CHANNELS 3 Zrotation Xrotation Yrotation
              JOINT LeftArm
              {
                OFFSET 16.3182 6.10351e-005 0
                CHANNELS 3 Zrotation Xrotation Yrotation
                JOINT LeftForeArm
                {
                  OFFSET 27.0901 0 0
                  CHANNELS 3 Zrotation Xrotation Yrotation
                  JOINT LeftHand
                  {
                    OFFSET 24.5451 1.52588e-005 0
                    CHANNELS 3 Zrotation Xrotation Yrotation
                    End Site
                    {
                      OFFSET 0 0 0
                    }
                  }
                }
              }
            }
            JOINT Neck
            {
              OFFSET 5.0226 -0.0266342 0
              CHANNELS 3 Zrotation Xrotation Yrotation
              JOINT Head
              {
                OFFSET 6.69363 2.86102e-005 0
                CHANNELS 3 Zrotation Xrotation Yrotation
                End Site
                {
                  OFFSET 0 0 0
                }
              }
            }
          }
        }
      }
    }
  }
}
MOTION
Frames:	10
Frame Time:	0.0416667
31.0694 97.4137 -245.762 -25.839 -86.9252 -26.339 -174.854 8.90861 86.5677 -16.4066 16.0789 0.250306 66.1646 8.06953 6.34383 34.4388 4.10397 15.1735 172.876 16.9806 92.5458 -31.9006 2.6316 0.575769 55.2927 6.0491 4.772 47.5416 2.25732 13.0481 -0.0798318 7.00275 -90.0549 12.8683 -0.184768 -0.08752 1.19738 -0.188457 -0.0793064 -21.3378 -0.149933 -0.139011 -1.3252 -0.14993 -0.139013 90.2972 -52.9267 -99.7235 22.916 -7.74996 0.627013 -10.9869 -31.2718 -43.4562 -2.39383 -0.738961 5.2701 -106.531 -56.1653 57.354 -16.8868 14.2461 1.48018 1.83254 11.8267 -30.1246 11.5003 0.864531 3.46839 8.32251 2.49323 4.17991 -2.633 1.67455 -0.338251 
31.3417 97.122 -244.85 -11.5134 -86.7118 -12.2007 -175.285 9.22322 86.0184 -17.359 17.1203 0.37164 66.5731 9.98708 10.6379 29.2203 -0.31601 6.57503 173.685 17.2346 92.5977 -33.2733 1.996 -0.456431 56.969 5.29528 4.11606 52.0405 2.3808 8.54524 -0.0425581 7.03907 -90.0286 12.7957 -0.0981768 -0.0454615 1.12476 -0.100076 -0.0411025 -21.4104 -0.0799736 -0.0728649 -1.39775 -0.0799763 -0.0728641 91.1675 -52.7717 -98.4633 23.0969 -7.44087 0.761858 -9.59837 -29.7701 -43.2505 -2.90762 -0.853257 8.48 -107.421 -55.4758 55.8808 -16.8538 14.4462 1.73952 1.51661 10.8617 -30.7145 11.7583 0.91254 3.71269 7.58019 2.07537 3.2525 -1.58408 1.46723 0.285744 
31.7517 96.906 -243.76 -0.201881 -86.8396 -0.496128 -175.183 8.79412 86.2201 -17.9755 16.3822 0.445478 67.7899 10.9745 9.57308 28.3896 -0.833864 4.75952 174.062 15.3022 92.9463 -32.4913 2.24151 -0.621624 61.1042 2.97002 2.23577 52.9389 2.09027 5.96383 -0.0731635 7.10205 -90.0615 12.67 -0.174629 -0.10258 0.999025 -0.178976 -0.0948032 -21.5362 -0.135735 -0.150325 -1.52354 -0.135729 -0.150325 90.8999 -52.8591 -98.8435 23.0987 -7.28116 1.56161 -9.858 -29.7537 -43.1313 -3.84509 -0.903184 7.66251 -106.519 -55.1788 56.9623 -17.2128 14.9959 1.42752 1.84077 11.2134 -31.6634 11.6058 0.932545 3.96319 6.92456 1.92971 3.08932 -0.801298 1.37665 0.374528 
32.3254 96.1993 -242.776 -11.9138 -86.7314 -11.6425 -174.826 9.784 86.3819 -21.2486 15.6805 0.224762 69.1507 12.0949 10.245 30.0792 0.815398 2.48423 175.615 15.5499 93.8237 -34.9597 -0.964437 -2.17157 65.1259 -0.336982 0.0246038 51.8717 1.03184 -1.04988 0.0305205 7.17447 -90.0923 12.5244 0.016712 -0.186639 0.853455 0.008475 -0.187195 -21.6816 0.072028 -0.172992 -1.66891 0.0720268 -0.17299 90.8298 -52.6514 -98.9901 23.3575 -7.43087 2.51126 -9.68779 -29.4138 -43.4684 -4.10468 -0.908476 7.45564 -106.304 -54.8249 57.1047 -16.7114 16.1459 0.788751 1.83815 11.3384 -32.9504 11.736 1.08643 5.12556 5.96932 1.84852 2.91714 0.460046 1.34846 0.22361 
32.5591 95.5726 -241.868 -29.2279 -86.6383 -30.302 -174.964 9.53931 85.0139 -22.9211 13.9417 -0.00897109 70.9372 12.8373 8.90787 29.9349 0.946821 -0.412451 174.729 17.3379 92.6217 -38.2329 4.5923 -0.438392 68.5326 -3.8252 -2.07206 48.968 1.50446 4.37066 0.0333429 7.30665 -89.8477 12.2603 0.138519 0.288513 0.589325 0.151086 0.282127 -21.9456 0.0453972 0.316803 -1.93293 0.0454025 0.316798 90.9882 -52.8474 -98.715 24.0594 -7.49351 2.82775 -10.1111 -29.4789 -43.5618 -4.19084 -0.911823 7.30739 -105.948 -54.2675 57.3544 -15.6665 16.1573 0.551171 2.7746 10.9946 -35.3533 10.8605 0.871753 3.91158 4.7319 2.16495 1.81983 2.72562 1.89929 0.80263 
33.1599 95.3198 -240.372 -25.8315 -86.4894 -26.3325 -174.664 9.44038 85.2521 -24.3222 13.3422 -0.0425105 72.0964 13.2622 8.28103 30.9042 1.78891 -1.60466 176.358 20.9701 93.1822 -42.8605 -0.368767 -1.69827 69.4243 -4.78655 -2.55411 46.8713 0.574287 -3.50598 -0.139075 7.39186 -89.9057 12.0908 -0.231799 0.214462 0.419797 -0.222133 0.224451 -22.1154 -0.285541 0.134882 -2.10274 -0.285537 0.134882 91.4822 -52.6292 -98.0233 24.8589 -7.82281 3.1109 -9.85944 -29.6007 -43.5635 -4.47414 -0.962094 7.87945 -106.334 -54.6113 56.975 -13.5916 16.1275 -1.17016 2.59642 10.4804 -36.0031 10.9382 0.81559 3.37903 3.90009 2.86806 2.48811 3.85133 2.53588 1.09733 
33.8304 95.5599 -237.928 0.000449173 -86.177 0.836313 -174.936 7.65152 86.057 -22.4731 14.9268 0.707317 72.1326 13.6882 9.08532 30.3638 1.50723 -3.32783 177.063 23.022 93.6641 -38.2866 -3.78287 -1.9394 68.497 -4.32979 -2.3346 45.3579 0.111978 -8.86749 -0.430618 7.33317 -90.1105 12.2079 -0.908217 -0.11975 0.537312 -0.912608 -0.0796643 -22.0001 -0.830243 -0.387191 -1.9874 -0.830232 -0.387185 91.6587 -52.7379 -97.7391 25.0342 -8.00419 5.16601 -9.3388 -28.942 -42.9129 -4.84067 -0.93083 6.88853 -106.954 -54.4023 56.0505 -12.9735 15.6885 -2.45678 2.67214 10.3061 -36.2424 10.7603 0.935331 4.51713 2.7181 3.1836 2.10317 4.09086 3.03419 2.56311 
34.0249 95.5817 -235.563 -15.5804 -86.1873 -14.6966 -174.063 4.77754 86.3621 -20.1324 15.0461 0.0703737 72.4824 13.9285 8.97416 30.4611 1.54742 -2.89876 177.891 24.5509 93.9022 -30.2265 -2.87285 -2.22636 66.9255 -3.64614 -1.98884 42.3336 0.202705 -8.75397 -0.502844 7.38522 -90.1418 12.1031 -1.06658 -0.165255 0.432567 -1.07281 -0.118144 -22.1055 -0.967597 -0.478181 -2.09288 -0.967604 -0.478193 91.5454 -52.9838 -97.8605 24.9355 -7.47044 6.86275 -11.1604 -28.9825 -43.9989 -3.87754 -0.947614 8.83409 -106.266 -53.7757 56.7159 -12.9831 15.2858 -3.62491 3.11178 9.65258 -37.6407 10.093 0.782175 3.61159 3.58271 3.56046 1.8232 3.60575 3.42168 2.62631 
34.1559 95.2889 -232.789 -35.1422 -85.4449 -34.4812 -173.473 2.35081 86.322 -18.8157 14.8175 -0.444741 72.3946 13.7738 9.89962 32.4717 3.07488 -3.47199 178.276 26.2374 94.0377 -22.3026 -4.97224 -2.10674 63.4125 -2.35454 -1.31955 39.4946 0.338647 -6.71673 -0.500292 7.46086 -90.118 11.952 -1.05033 -0.121839 0.281467 -1.05467 -0.0754914 -22.2566 -0.96515 -0.431912 -2.24398 -0.965153 -0.43191 92.2026 -53.3609 -96.8164 24.6751 -6.93519 7.26916 -7.76045 -28.4617 -41.1731 -4.23028 -1.01123 9.91514 -106.374 -53.3063 56.3697 -11.6323 15.5586 -4.7363 3.49652 9.32551 -39.6599 11.0825 0.936242 4.31798 4.67518 3.40646 1.23712 3.928 3.39157 3.28899 
34.1401 94.6924 -229.587 -28.005 -85.2039 -27.6027 -173.282 0.911073 86.3127 -19.2466 15.24 -0.446184 73.1784 14.1591 9.58361 34.2311 4.33981 -1.98832 177.951 27.5558 93.9092 -15.28 -5.4695 -1.57536 61.7621 -1.73058 -0.96714 39.4328 0.357308 -6.09796 -0.697432 7.50615 -90.0904 11.8623 -1.42935 -0.0273285 0.192104 -1.42918 0.0356169 -22.3489 -1.35506 -0.455728 -2.33623 -1.35505 -0.455722 92.1827 -54.5107 -96.6415 23.7361 -6.09681 7.22503 -7.68973 -28.9047 -39.6585 -4.54497 -0.803236 4.90692 -105.916 -52.7845 56.7744 -10.1193 15.5992 -6.34289 3.46946 9.2982 -40.1567 11.7609 0.982811 4.26108 5.1774 3.54376 0.847132 4.66632 3.59451 3.20717 
